<?xml version="1.0" encoding="UTF-8" standalone="no"?>
<!-- Created with Inkscape (http://www.inkscape.org/) -->

<svg
   width="128"
   height="128"
   viewBox="0 0 128 128"
   version="1.1"
   id="svg1"
   xmlns="http://www.w3.org/2000/svg"
   xmlns:svg="http://www.w3.org/2000/svg">
  <defs
     id="defs1" />
  <path
     d="M 105.11803,17.000352 H 23.281967 A 7.0111475,6.7911943 0 0 0 16.2,23.707704 v 79.588836 a 7.0111475,6.7911943 0 0 0 7.081967,6.69211 H 105.11803 A 7.0268852,6.8064383 0 0 0 112.2,103.27367 V 23.684838 a 7.0268852,6.8064383 0 0 0 -7.08197,-6.684486 z M 44.661639,96.269061 H 30.411148 V 51.855718 H 44.661639 Z M 37.579672,45.803857 a 8.2622951,8.0030909 0 1 1 8.254426,-8.003091 8.2622951,8.0030909 0 0 1 -8.29377,7.987847 z M 98.036066,96.269061 H 83.785574 V 74.660716 c 0,-5.144844 -0.09443,-11.768355 -7.40459,-11.768355 -7.310164,0 -8.553443,5.609786 -8.553443,11.432987 V 96.269061 H 53.600656 V 51.855718 h 13.660328 v 6.097593 h 0.188852 c 1.904262,-3.490872 6.546885,-7.172294 13.479344,-7.172294 14.431476,-0.03049 17.106886,9.169256 17.106886,21.097672 z"
     id="path1"
     style="stroke-width:0.774444" />
</svg>
