<?xml version="1.0" encoding="UTF-8" standalone="no"?>
<svg
   viewBox="0 0 128 128"
   version="1.1"
   id="svg1"
   height="128"
   width="128"
   xmlns="http://www.w3.org/2000/svg"
   xmlns:svg="http://www.w3.org/2000/svg">
  <defs
     id="defs1" />
  <path
     d="m 106.86667,81.575694 c -6.4,0 -13.333337,-1.033211 -19.200003,-3.099633 -0.533334,0 -1.066667,0 -1.6,0 -1.6,0 -2.666667,0.516606 -3.733334,1.549817 L 70.6,91.3912 C 55.666667,83.642117 42.866667,71.760189 35.4,57.295233 L 47.133333,45.929911 c 1.6,-1.549817 2.133334,-3.616239 1.066667,-5.166055 C 46.6,35.081194 45.533333,28.365322 45.533333,22.166056 45.533333,19.583028 42.866667,17 40.2,17 H 21.533333 C 18.866667,17 16.2,19.583028 16.2,22.166056 c 0,48.560922 40.533333,87.822944 90.66667,87.822944 2.66666,0 5.33333,-2.58303 5.33333,-5.16606 V 86.74175 c 0,-2.583028 -2.66667,-5.166056 -5.33333,-5.166056 M 26.866667,27.332111 h 8 c 0.533333,4.64945 1.6,9.2989 2.666666,13.431745 l -6.4,6.199266 C 29,40.763856 27.4,34.047983 26.866667,27.332111 M 101.53333,99.656889 C 94.6,99.140283 87.666667,97.590467 81.266667,95.524044 l 6.4,-6.199266 c 4.266666,1.033211 9.066666,2.066422 13.866663,2.066422 z"
     id="path1"
     style="stroke-width:5.24904" />
</svg>
